mtllib materials.mtl
v 0.003636241 -0.2504543 0.2386364
v 0.00363636 -0.2504543 -0.2513636
v 0.00363636 0.2695457 -0.2513636
v 0.003636241 0.2695457 0.2386363
v -0.01636386 -0.2554543 0.2286364
v -0.01636386 0.2645457 0.2286363
v -0.01636386 0.2645457 0.2586363
v -0.01636386 -0.2554543 0.2586364
v 0.01363611 -0.2554543 0.2286364
v 0.01363611 -0.2554543 0.2586364
v 0.01363611 0.2645457 0.2586363
v 0.01363611 0.2645457 0.2286363
v -0.01636362 -0.2804544 0.2586363
v -0.01636362 -0.2804544 -0.2613637
v -0.01636362 -0.2504544 -0.2613637
v -0.01636374 -0.2504544 0.2586363
v 0.01363635 -0.2804544 0.2586363
v 0.01363635 -0.2504544 0.2586363
v 0.01363635 -0.2504544 -0.2613637
v 0.01363647 -0.2804544 -0.2613637
v -0.01636362 0.2495455 0.2586363
v -0.01636362 0.2495455 -0.2613637
v -0.01636362 0.2795454 -0.2613637
v -0.01636374 0.2795454 0.2586363
v 0.01363635 0.2495455 0.2586363
v 0.01363635 0.2795454 0.2586363
v 0.01363635 0.2795454 -0.2613637
v 0.01363647 0.2495455 -0.2613637
v 0.01363635 -0.2704548 -0.2313636
v 0.01363635 0.2795454 -0.2313637
v 0.01363635 0.2795454 -0.2613637
v 0.01363635 -0.2704548 -0.2613636
v -0.01636362 -0.2704548 -0.2313636
v -0.01636362 -0.2704548 -0.2613636
v -0.01636362 0.2795454 -0.2613637
v -0.01636362 0.2795454 -0.2313637
v 0.01363635 -0.2604545 -0.001363695
v 0.01363635 0.2595454 -0.001363695
v -0.00636363 0.2595454 -0.001363695
v -0.00636363 -0.2604545 -0.001363695
v 0.01363635 -0.2604545 0.01863629
v -0.00636363 -0.2604545 0.01863629
v -0.00636363 0.2595454 0.01863629
v 0.01363635 0.2595454 0.01863629
v -0.02636373 0.2595456 0.2786363
v -0.02636373 0.2995455 0.2786363
v 0.02363634 0.2995455 0.2786363
v 0.02363634 0.2595456 0.2786363
v -0.02636361 0.2595456 -0.2713637
v 0.02363646 0.2595456 -0.2713637
v 0.02363646 0.2995455 -0.2713637
v -0.02636361 0.2995455 -0.2713637
v -0.02636361 -0.3004545 0.2786363
v -0.02636361 0.2695454 0.2786362
v 0.02363634 0.2695454 0.2786362
v 0.02363634 -0.3004545 0.2786363
v -0.02636361 -0.3004545 0.2386363
v 0.02363634 -0.3004545 0.2386363
v 0.02363634 0.2695454 0.2386363
v -0.02636361 0.2695454 0.2386363
v -0.02636361 -0.3004545 0.2786363
v -0.02636361 -0.2604545 0.2786363
v 0.02363646 -0.2604545 0.2786363
v 0.02363646 -0.3004545 0.2786363
v -0.02636349 -0.3004545 -0.2713637
v 0.02363658 -0.3004545 -0.2713637
v 0.02363658 -0.2604545 -0.2713637
v -0.02636349 -0.2604545 -0.2713637
v 0.02363634 -0.3004545 -0.2413637
v 0.02363634 0.2995454 -0.2413638
v 0.02363634 0.2995454 -0.2813638
v 0.02363634 -0.3004545 -0.2813637
v -0.02636361 -0.3004545 -0.2413637
v -0.02636361 -0.3004545 -0.2813637
v -0.02636361 0.2995454 -0.2813638
v -0.02636361 0.2995454 -0.2413638
v -0.00636363 -0.01045442 0.2386363
v -0.00636363 0.009545565 0.2386363
v 0.01363635 0.009545565 0.2386363
v 0.01363635 -0.01045442 0.2386363
v -0.00636363 -0.01045442 -0.2413638
v 0.01363635 -0.01045442 -0.2413638
v 0.01363635 0.009545565 -0.2413638
v -0.00636363 0.009545565 -0.2413638
vn -1 5.960464E-08 -1.788139E-07
vn 1 -5.960464E-08 1.788139E-07
vn -1 0 -1.78814E-07
vn 1 0 1.78814E-07
vn 1.78814E-07 1.192093E-07 -1
vn -1.78814E-07 -1.192093E-07 1
vn 0 -1 1.192093E-07
vn 0 1 -1.192093E-07
vn -1 -1.788139E-07 -1.748456E-07
vn 1 1.788139E-07 1.748456E-07
vn 1.788139E-07 -1 3.122018E-14
vn -1.788139E-07 1 -3.122018E-14
vn -1.748456E-07 -4.464541E-17 1
vn 1.748456E-07 4.464541E-17 -1
vn -1 -1.788139E-07 -1.748456E-07
vn 1 1.788139E-07 1.748456E-07
vn 1.788139E-07 -1 3.122018E-14
vn -1.788139E-07 1 -3.122018E-14
vn -1.748456E-07 -4.464541E-17 1
vn 1.748456E-07 4.464541E-17 -1
vn 1 0 1.748456E-07
vn -1 0 -1.748456E-07
vn -1.748456E-07 1.192093E-07 1
vn 1.748456E-07 -1.192093E-07 -1
vn 0 -1 1.192093E-07
vn 0 1 -1.192093E-07
vn 0 0 -1
vn 0 0 1
vn 1 0 0
vn -1 0 0
vn 0 -1 0
vn 0 1 0
vn -2.384186E-07 0 1
vn 2.384186E-07 0 -1
vn -1 5.960464E-08 -1.788139E-07
vn 1 -5.960464E-08 1.788139E-07
vn 0 -1 5.960464E-08
vn 0 1 -5.960464E-08
vn -2.384186E-07 0 1
vn 2.384186E-07 0 -1
vn -1 5.960464E-08 -1.788139E-07
vn 1 -5.960464E-08 1.788139E-07
vn 0 -1 5.960464E-08
vn 0 1 -5.960464E-08
vn -2.384186E-07 0 1
vn 2.384186E-07 0 -1
vn -1 5.960464E-08 -1.788139E-07
vn 1 -5.960464E-08 1.788139E-07
vn 0 -1 5.960464E-08
vn 0 1 -5.960464E-08
vn 1 0 0
vn -1 0 0
vn 0 1.192093E-07 1
vn 0 -1.192093E-07 -1
vn 0 -1 1.192093E-07
vn 0 1 -1.192093E-07
vn 0 0 1
vn 0 0 -1
vn -1 0 0
vn 1 0 0
vn 0 -1 0
vn 0 1 0
usemtl mat24
f 4//1 3//1 2//1 1//1
f 2//2 3//2 4//2 1//2
usemtl mat20
f 8//3 7//3 6//3 5//3
f 12//4 11//4 10//4 9//4
f 6//5 12//5 9//5 5//5
f 10//6 11//6 7//6 8//6
f 9//7 10//7 8//7 5//7
f 7//8 11//8 12//8 6//8
f 16//9 15//9 14//9 13//9
f 20//10 19//10 18//10 17//10
f 14//11 20//11 17//11 13//11
f 18//12 19//12 15//12 16//12
f 17//13 18//13 16//13 13//13
f 15//14 19//14 20//14 14//14
f 24//15 23//15 22//15 21//15
f 28//16 27//16 26//16 25//16
f 22//17 28//17 25//17 21//17
f 26//18 27//18 23//18 24//18
f 25//19 26//19 24//19 21//19
f 23//20 27//20 28//20 22//20
f 32//21 31//21 30//21 29//21
f 36//22 35//22 34//22 33//22
f 30//23 36//23 33//23 29//23
f 34//24 35//24 31//24 32//24
f 33//25 34//25 32//25 29//25
f 31//26 35//26 36//26 30//26
f 40//27 39//27 38//27 37//27
f 44//28 43//28 42//28 41//28
f 38//29 44//29 41//29 37//29
f 42//30 43//30 39//30 40//30
f 41//31 42//31 40//31 37//31
f 39//32 43//32 44//32 38//32
f 48//33 47//33 46//33 45//33
f 52//34 51//34 50//34 49//34
f 46//35 52//35 49//35 45//35
f 50//36 51//36 47//36 48//36
f 49//37 50//37 48//37 45//37
f 47//38 51//38 52//38 46//38
f 56//39 55//39 54//39 53//39
f 60//40 59//40 58//40 57//40
f 54//41 60//41 57//41 53//41
f 58//42 59//42 55//42 56//42
f 57//43 58//43 56//43 53//43
f 55//44 59//44 60//44 54//44
f 64//45 63//45 62//45 61//45
f 68//46 67//46 66//46 65//46
f 62//47 68//47 65//47 61//47
f 66//48 67//48 63//48 64//48
f 65//49 66//49 64//49 61//49
f 63//50 67//50 68//50 62//50
f 72//51 71//51 70//51 69//51
f 76//52 75//52 74//52 73//52
f 70//53 76//53 73//53 69//53
f 74//54 75//54 71//54 72//54
f 73//55 74//55 72//55 69//55
f 71//56 75//56 76//56 70//56
f 80//57 79//57 78//57 77//57
f 84//58 83//58 82//58 81//58
f 78//59 84//59 81//59 77//59
f 82//60 83//60 79//60 80//60
f 81//61 82//61 80//61 77//61
f 79//62 83//62 84//62 78//62
