<?xml version="1.0" encoding="UTF-8" standalone="no"?>
<svg
   xmlns:dc="http://purl.org/dc/elements/1.1/"
   xmlns:cc="http://creativecommons.org/ns#"
   xmlns:rdf="http://www.w3.org/1999/02/22-rdf-syntax-ns#"
   xmlns:svg="http://www.w3.org/2000/svg"
   xmlns="http://www.w3.org/2000/svg"
   height="41.900002"
   width="198"
   version="1.1"
   viewBox="0 0 197.99999 41.9"
   data-name="Layer 1"
   id="Layer_1">
  <metadata
     id="metadata17">
    <rdf:RDF>
      <cc:Work
         rdf:about="">
        <dc:format>image/svg+xml</dc:format>
        <dc:type
           rdf:resource="http://purl.org/dc/dcmitype/StillImage" />
        <dc:title>bb_logo_white</dc:title>
      </cc:Work>
    </rdf:RDF>
  </metadata>
  <defs
     id="defs3">
    <style
       id="style5">.cls-1{fill:#e20177;}</style>
  </defs>
  <title
     id="title7">bb_logo_white</title>
  <rect
     y="7.8118634"
     x="6.2139831"
     height="26.986443"
     width="29.649578"
     id="rect3364"
     style="fill:#ffffff" />
  <polygon
     transform="translate(0,-1.5258789e-6)"
     style="fill:#e20177"
     id="polygon9"
     points="13.85,23.32 13.85,25.67 27.99,25.67 27.99,23.32 18.56,23.32 13.85,23.32 "
     class="cls-1" />
  <rect
     style="fill:#e20177"
     id="rect11"
     height="2.3599999"
     width="9.4300003"
     y="16.249998"
     x="18.559999"
     class="cls-1" />
  <path
     style="fill:#e20177"
     id="path13"
     d="M 21,-1.5258789e-6 A 21,21 0 1 0 42,20.999998 21,21 0 0 0 21,-1.5258789e-6 Z M 32.7,16.249998 l 0,14.14 -23.57,0 0,-11.79 4.71,0 0,-7.07 18.86,0 0,4.71 z"
     class="cls-1" />
  <g
     transform="matrix(0.99992334,0,0,-0.9956891,62.856341,22.717548)"
     id="g3432">
    <path
       id="path3434"
       style="fill:#ffffff;fill-opacity:1;fill-rule:nonzero;stroke:none"
       d="m 0,0 -2.415,0 0,-3.431 2.39,0 c 1.194,0 2.263,0.406 2.263,1.802 C 2.238,-0.279 1.12,0 0,0 m -0.559,6.939 -1.856,0 0,-2.922 1.831,0 c 1.043,0 1.906,0.303 1.906,1.498 0,1.196 -0.889,1.424 -1.881,1.424 M 5.109,-6.025 C 3.178,-7.678 1.398,-7.653 -1.042,-7.653 l -5.974,0 0,18.813 5.796,0 c 2.262,0 4.398,-0.026 6.024,-1.83 C 5.592,8.465 5.924,7.396 5.924,6.228 5.924,4.626 5.135,3.229 3.738,2.44 5.796,1.727 6.839,0.202 6.839,-1.931 c 0,-1.5 -0.56,-3.104 -1.73,-4.094" />
  </g>
  <g
     style="fill:#ffffff"
     transform="matrix(0.99992334,0,0,-0.9956891,74.322768,22.616386)"
     id="g3436">
    <path
       id="path3438"
       style="fill:#ffffff;fill-opacity:1;fill-rule:nonzero;stroke:none"
       d="m 0,0 0,-7.755 -4.221,0 0,14.11 3.968,0 0,-1.5 0.049,0 c 0.738,1.45 1.908,1.983 3.535,1.983 l 0,-4.246 C 1.475,2.541 0,2.187 0,0" />
  </g>
  <g
     style="fill:#ffffff"
     transform="matrix(0.99992334,0,0,-0.9956891,85.355623,19.731974)"
     id="g3440">
    <path
       id="path3442"
       style="fill:#ffffff;fill-opacity:1;fill-rule:nonzero;stroke:none"
       d="m 0,0 c -2.059,0 -3.482,-1.626 -3.482,-3.633 0,-1.958 1.525,-3.561 3.508,-3.561 2.06,0 3.535,1.576 3.535,3.61 C 3.561,-1.524 2.059,0 0,0 m 3.561,-10.652 0,1.526 -0.052,0 c -0.763,-1.448 -2.592,-2.007 -4.118,-2.007 -4.347,0 -7.093,3.354 -7.093,7.549 0,4.118 2.847,7.525 7.093,7.525 1.55,0 3.278,-0.586 4.118,-1.983 l 0.052,0 0,1.5 4.218,0 0,-14.11 -4.218,0 z" />
  </g>
  <g
     style="fill:#ffffff"
     transform="matrix(0.99992334,0,0,-0.9956891,102.67998,30.337856)"
     id="g3444">
    <path
       id="path3446"
       style="fill:#ffffff;fill-opacity:1;fill-rule:nonzero;stroke:none"
       d="m 0,0 0,7.705 c 0,1.575 -0.305,2.921 -2.211,2.921 -1.958,0 -2.416,-1.27 -2.416,-2.948 l 0,-7.678 -4.22,0 0,14.11 3.941,0 0,-1.5 0.051,0 c 0.89,1.45 2.137,1.983 3.837,1.983 1.199,0 2.697,-0.458 3.613,-1.221 1.344,-1.118 1.627,-2.898 1.627,-4.551 L 4.222,0 0,0 Z" />
  </g>
  <g
     style="fill:#ffffff"
     transform="matrix(0.99992334,0,0,-0.9956891,115.18392,19.757763)"
     id="g3448">
    <path
       id="path3450"
       style="fill:#ffffff;fill-opacity:1;fill-rule:nonzero;stroke:none"
       d="m 0,0 c -1.958,0 -3.407,-1.601 -3.407,-3.506 0,-1.959 1.347,-3.635 3.38,-3.635 2.034,0 3.457,1.473 3.457,3.506 C 3.43,-1.601 2.085,0 0,0 m 6.812,-13.575 c -1.398,-2.363 -4.576,-3.33 -7.143,-3.33 -2.39,0 -4.779,0.738 -6.179,2.772 -0.456,0.66 -0.762,1.398 -0.864,2.186 l 4.884,0 c 0.455,-1.016 1.421,-1.398 2.463,-1.398 2.314,0 3.431,1.6 3.431,3.84 l 0,0.431 -0.049,0 c -0.738,-1.373 -2.364,-2.009 -3.866,-2.009 -4.218,0 -7.116,3.306 -7.116,7.424 0,4.143 2.821,7.601 7.116,7.601 1.45,0 3.077,-0.484 3.892,-1.782 l 0.049,0 0,1.324 4.22,0 0,-12.406 c 0,-1.576 -0.025,-3.254 -0.838,-4.653" />
  </g>
  <g
     style="fill:#ffffff"
     transform="matrix(0.99992334,0,0,-0.9956891,130.78913,19.352218)"
     id="g3452">
    <path
       id="path3454"
       style="fill:#ffffff;fill-opacity:1;fill-rule:nonzero;stroke:none"
       d="m 0,0 c -1.525,0 -2.872,-0.889 -3.202,-2.415 l 6.405,0 C 2.874,-0.889 1.525,0 0,0 m 7.322,-5.262 -10.575,0 c 0.254,-1.677 1.651,-2.668 3.306,-2.668 1.143,0 1.88,0.455 2.566,1.322 l 4.322,0 C 5.722,-9.432 3.23,-11.49 0.053,-11.49 c -4.118,0 -7.474,3.355 -7.474,7.475 0,4.092 3.252,7.575 7.398,7.575 4.32,0 7.446,-3.459 7.446,-7.703 0,-0.382 -0.026,-0.737 -0.101,-1.119" />
  </g>
  <g
     style="fill:#ffffff"
     transform="matrix(0.99992334,0,0,-0.9956891,142.8966,22.616386)"
     id="g3456">
    <path
       id="path3458"
       style="fill:#ffffff;fill-opacity:1;fill-rule:nonzero;stroke:none"
       d="m 0,0 0,-7.755 -4.22,0 0,14.11 3.966,0 0,-1.5 0.051,0 c 0.738,1.45 1.909,1.983 3.534,1.983 l 0,-4.246 C 1.476,2.541 0,2.187 0,0" />
  </g>
  <path
     id="path3460"
     style="fill:#e40477;fill-opacity:1;fill-rule:nonzero;stroke:none"
     d="m 144.60227,30.337955 13.71094,0 0,4.114188 -13.71094,0 0,-4.114187 z" />
  <g
     style="fill:#ffffff"
     transform="matrix(0.99992334,0,0,-0.9956891,166.80886,22.717548)"
     id="g3462">
    <path
       id="path3464"
       style="fill:#ffffff;fill-opacity:1;fill-rule:nonzero;stroke:none"
       d="m 0,0 -2.416,0 0,-3.431 2.389,0 c 1.195,0 2.264,0.406 2.264,1.802 C 2.237,-0.279 1.118,0 0,0 m -0.56,6.939 -1.856,0 0,-2.922 1.829,0 c 1.043,0 1.908,0.303 1.908,1.498 0,1.196 -0.888,1.424 -1.881,1.424 M 5.109,-6.025 C 3.177,-7.678 1.398,-7.653 -1.043,-7.653 l -5.975,0 0,18.813 5.797,0 c 2.263,0 4.398,-0.026 6.024,-1.83 C 5.593,8.465 5.922,7.396 5.922,6.228 5.922,4.626 5.135,3.229 3.735,2.44 5.795,1.727 6.838,0.202 6.838,-1.931 c 0,-1.5 -0.56,-3.104 -1.729,-4.094" />
  </g>
  <g
     style="fill:#ffffff"
     transform="matrix(0.99992334,0,0,-0.9956891,178.47589,23.086054)"
     id="g3466">
    <path
       id="path3468"
       style="fill:#ffffff;fill-opacity:1;fill-rule:nonzero;stroke:none"
       d="m 0,0 0,-7.283 -4.221,0 0,14.11 3.967,0 0,-1.973 0.051,0 C 0.534,6.303 1.703,6.836 3.33,6.836 l 0,-4.245 C 1.473,2.54 0,2.185 0,0" />
  </g>
  <path
     id="path3470"
     style="fill:#ffffff;fill-opacity:1;fill-rule:nonzero;stroke:none"
     d="m 182.51836,16.288783 4.21969,0 0,14.049173 -4.21969,0 0,-14.049172 z" />
  <g
     style="fill:#ffffff"
     transform="matrix(0.99992334,0,0,-0.9956891,187.3805,30.337856)"
     id="g3472">
    <path
       id="path3474"
       style="fill:#ffffff;fill-opacity:1;fill-rule:nonzero;stroke:none"
       d="m 0,0 0,2.898 5.99,8.008 -5.99,0 0,3.204 10.573,0 0,-3.204 -5.555,-7.702 5.555,0 L 10.573,0 0,0 Z" />
  </g>
</svg>
